<mxfile host="app.diagrams.net" modified="2021-08-10T14:21:29.424Z" agent="5.0 (Windows NT 10.0; Win64; x64) AppleWebKit/537.36 (KHTML, like Gecko) Chrome/90.0.4430.93 Safari/537.36" etag="TNE25j4H0d_UCeqcURIL" version="14.9.5" type="github">
  <diagram id="7XQFVAyEYRxhQ6B6Nvbq" name="Page-1">
    <mxGraphModel dx="1328" dy="746" grid="1" gridSize="10" guides="1" tooltips="1" connect="1" arrows="1" fold="1" page="1" pageScale="1" pageWidth="827" pageHeight="1169" math="0" shadow="0">
      <root>
        <mxCell id="0" />
        <mxCell id="1" parent="0" />
        <mxCell id="74vnh9bXnx0oglWYi-Rk-1" value="" style="rounded=1;whiteSpace=wrap;html=1;strokeColor=#3399FF;" vertex="1" parent="1">
          <mxGeometry x="70.99999999999999" y="243" width="160" height="290" as="geometry" />
        </mxCell>
        <mxCell id="74vnh9bXnx0oglWYi-Rk-2" value="" style="rounded=1;whiteSpace=wrap;html=1;strokeColor=#B3B3B3;" vertex="1" parent="1">
          <mxGeometry x="320" y="55.06999999999999" width="160" height="290" as="geometry" />
        </mxCell>
        <mxCell id="74vnh9bXnx0oglWYi-Rk-3" value="" style="shape=image;verticalLabelPosition=bottom;labelBackgroundColor=#ffffff;verticalAlign=top;aspect=fixed;imageAspect=0;image=data:image/png,iVBORw0KGgoAAAANSUhEUgAAALYAAAC+CAYAAACYo/VpAAAgAElEQVR4Ae2dh18UV/f/8w/9vqlP7MESUzTG9OR5EpPYe6cIAgp2RQV7F3tXxIL03nsVpUovgh3sn9/rc2fv7OyyC8syNN19vY6zrLtT7n3PmXPPOffcD+B4OVrgHWyBD97Ba3JckqMF4ADbAcE72QIOsN/JbnVclANsBwPvZAs4wH4nu9VxUQ6we8jAWwBv8FaV12/foDui/S335Xjp0wIOsG1oRy28EloJpA0/79ZX5H7Nj+OAvlvN6PCKmDeXFmIJmfl3zP9+9fYNHr9pR9OrR6h52YqyF40oel6LnLZ7yGqrRNqzMiF8z8/4f/wOv8vf8LfcR1cveT5y64Ddeos5NLbGlKCWtPZqf/MStS8fCFATnt3FpYfp2Nh4DS51ZzGn5ij+qtqHnyoD8G25H8aVbcSYsvVwKl2HL0rXYFTpWiF8z8/4f/wOv8vf8LfcB/fFfXLfPAZvBB6Tx7b24jlL0K195338/L0F+y3e4jUUKMw7/sXb16h+2YKkZyU48yAZW5pvYlHtSfxdfQD/vbcHS2pPYW5NICZX+luWiu2YbKtY2Af3zWPwWDwmj81z4LkkPytF9ctW8BzNXwSc18Rre99f7xXY7HCl2007np/Xv3oooDn5IAkbGq9hUe0JzKg+3EGW1J7EtuZbWNcQjJlVRwxyGDOrjDLj3mHYItrfGN8fEfve1nQLPJalc+C58Rx5rgSd524Os7VrfV+Afy/AtvSofv72FQqf1+L0g2R41F/Af6v2YGLF1g4yqWIbvq/YBm6/K9+Kvyr3Yl3DNaysvYAJZX69Itw3j8Fj8ZiTyreq5zCx3K/DOfLceQ28Fl4Tr037snT92v9/F9+/s2BTJ9P+1OpmDtAK2mtwsCUGs6qPYGzZBtX+lXYwbeDRtI1L1mLUXV+MurvGRCaXbYdX3SUsrT5p8rn593ryN/fNY/BYHffjK85tdMk6Ya+PKjHa8LwGXhOvjdfIa9UOSi21ybsINa/pnQObj2DzxzIHYOcfpmJB7fEOMBNkMcizArI5WP0PtumNxpuPN6F6DYaBqoSc18xrZxtoX5baSfv/g/39OwO2+eOW2imzrQLrG4PxfcV2E81sqpXNQen874EHtun5EnI+cXiN8inELduAbcE20T7FzNttsAMtz3/Qg82O0brpXrx9hbz2KqxuuGzSsXS1GU0MUxjMtXJnfw90sLXnLiH/wsxcYduwjdhW8iXdhvLvwb4dtGCba5qnb57jyqMMrGsMhk9jEH6p3CHApuYS2suCvayFwNb3gwls4zX5wqlE8aFTe7Nt2EZsq8sPM8C2ky/zdpWfD7btoANbDoBkQzN4QaCnVO0TIM+rCcTqxiD8XrELQlOZDf6MnW2f1h6cYGuv1Re/VezE6oYgsK0IOtuObagNBJkPvGV7D5btoAKb2kTah9yGPc4Xfl5pS9LcWECwG4Lwc3mABY+CtoPtez/4wV4j2sa7/opoK21klD7z8CcFJm3MNh+Mr0EBtrmWZr7FsrrTqg0tQ9XU0HOrjmJ1/RUH2J08qXjTs43YVvSq0FTT2uFsW7axfA1G7T3gwdYODJtfPca25hATl93osvUQvlxDRzrA7vpJZAq28fscXMunH/3hbGu2uXxp+0J+NlC3AxZscy1961Eefq3cqTY8gbZkQzvANoJqbTxhDWzl+77CeyQBZ5uz7eVrsGjvAQm21q5jHoR3wyUVaOWxyaig5Q50gG25XbTt1TnYyu9l0EcCzj5gX8iXto/kZwNpO+DA1j7uIh4X4IcKfxVqc7ND21nyvQNsfcCW7ak1T9gX7BP50vaV/GygbAcM2DQ9pBagX9Wv6aYJ0JbMDtn42q0DbH3BVtrW1DzZ0nRT9X2zzwai32RAgC2B5t2e31aNf6sOmECtHRxqIbb03gF2b4Ct7FOrvadWHUTesypVQWv7UP2wH9/0O9jax9nVh5n4qnyzgFoMDjn7xIotbe1zB9hdt5ktNra19pVhetreX5VtQlBruoqvti/VD/vpTb+CLRuCd/uu++F2a2ltJzjA7l2wZVur2rtkDXY0hqr5OrJP+4ln9bD9BrZsgEev2+Bed16FWuR1MGmnm5paft8Bdtdt1xONLduZW+afCK9JyRq4VZ3Gg5dPBViyb1XK+uFNv4At7bHqFy1qSJxAC6jtBFo2uAPsvgObba66BUvWYFrFAVS2NQmMZR/3A9PikH0Kttbzcae9Dr/d29Uje1rCrN06wO5bsJW294VwxTJzsNQfRU+UQSXh7i+PSZ+BrYX67vN6UXaAjzGWIuiO10MLsaX3DrD7A2zlmGNK1wtF9UPJtn6Hu0/A1kJd1F6LlfUXRb6H3lATdAfY/Qc2259wM89kRdVZ5D6qVM2SvtbcvQ62hPrt27dIfVaKDU3BIkTOKNa3ZVvwTam+sqzmNDY2XMfflft03zfP9b8Ve0R5BI/a872yfx6D+2Z5Bx5L7/bh/tg2bCO2VW/snzVVGIJfU30F8a1FYN/3tVnS62CLC3r7FtTUhPrUw2QEtibCq/4i3GvP6y77mqNw9kEyNjVc133fPN919cE43ZqEw/djemX/PAb3zWPwWL3RRmwbthHbqjf271l3EYEtCaKvfe9dQvaDchXuvhpM9irYEuqS5w1wrz8Pz4ZLCHyQgAMt0XCuPYOlNad0lx1NYTjRmgDf+iDd983zXVV3Gcda4rG3OapX9s9jcN88Bo/VG23EtmEbsa16Y//s2wP3oxDYGi/6fHnpCRQ8vNencPca2PRl8hFE78dPlTswpmwDfqoIgHf9JbjVnsX40o0YXbJed1lQfQxr6q+KqWG9sf+fDEn6zjWndT93eb7cNycC8FjyMz23nDbHNmJb6blfuS/2LfuYtVF+rPAXx/i+cDPyH1YKJvrCz90rYMsTp5/6j3u7xUiZA8WJZX7wqL0A55ozGFOy3u4gjCVviPzMMXjs38GjGECWrBd9zL6eUOonBpQj7/ji54KtqHjSIKwRyUhvmSa6g03zg6/Hr9swo+qwCjVderxIB9hdg9d5Jaiufy9vcmtbvSKP1vZPpUXlJcEWsJeuB+H+u3AXWp8rs3IkK70Bt65gyxOlCbKy7oIafJF+agfYtkH5LoJNuBnEGVG0Gi7Fx/D6tVItVjKjN9y6gS39lIR6T3OEgFrMdtFk6DnAfr/BlhOHR+SvwtbSIGFvE2jJjp5w6wa2HCzeeJQjoGZU0Tz3wwH2+w62klvCJ/jwHC9cqEnotcGkLmBLqIvaavBN+RZVW5vbYA6wHWCTCSo82tvjsnyQ3VLaK3D3GGxpIz191Y7pVYc62NVauB1gO8CWPDCfe+RtH/yZvR0P258IuCVLepgkPQKbtpGQt2/h13ijU6h5QQ6wHWBLsLkl3MPzvOFz+4wAW/LU72CzqDgHi5GPCqza1doLcYDtAFvLA3O5aW8PzfBAcHWyYElbqL4ngNutsfnYINSNLx7i54oAo7buZKKAA2wH2FqwpdYeWeyDiWlrUP24UTClR/DGLrCle+bNmzfwrb9ihLqLKV0OsB1gm4Mt4C5bL0wSt7yjqn9bMmav1rYLbOkFidCYILbU/XCA7QDbEthyrZ+h6R64WpWki9buNtjSBGl5+QT/q9xj1NadmCDyYhxgO8CWLJhvpZfkx9QNqH/S0mO4uw02tTVNkB1NoQJqEYTpwgSRF+EA2wG2ZMHSliwNy/bEuqJzgrGe2NrdAluaIIVt1RhfsckItg3amhfiANsBtiWg5Wf0kjBw45TqibTG20Jrv3rTcQViW+xum8GW/mpq6xW157plgsgTd4DtAFuyYG0rfdsLMvfi1atXAm57BpI2g03bmlBHPyoUUDMXxJYBo/YCHGA7wNbyYPm9smjskOQVCK5MEszZE5G0CWw5YGx/9QJzqo7Ypa15EQ6wHWBbhtm0Xai1mQE4JdUPT9qfCa3dXbhtApt2DrX19QdZdmtrB9imnddZB7+r+didXbPp//mKiOSQlBU4VRIp2Hv52rgmpS42ttTWz149x7R7BwXY5umopidlvQP7SmOvbwjGrHtH8HXpZt2nnw3mVcOc7q7Fd2VbMfPeYaytv2pYXMl6f9nar+bfszSDxvw7Xf1Nxqi1f0vaiIdtSpJUd7wkXWpsqa2vtfZMW/NC+gLsJdUnkfa0TNzlSU9K8HP5Dl3hHsxgL6g+jqrn9/H89UtEPS7AwurjuraNhFUPsEXQpmQNaGufuBMh+rM7HpJOwRYLyb99ixevXmBDwzXMqjmKOTWBmFl1xC5ZUnMKe5ojEdAUhrnV9u+ns+Mfuh+NJ6/a1YaIeJRv17laOwbn8u2/H4Xtjbd03a/2eNw3j8FjaT/vyft51YEoaW8Q7UKz8uGrZ9jfHKXb/rXnxr5lH7Ov2efa/+vOe7I2rWQ/XNMP42nbU8XWfvvGFksEnYL9xhCMKXhaLZYo5jLFXByUpQHskU0NN3CuNQWnWhLF9H979tHVby60pqpgswOpnVgYpqvf2fr/fg03ceFBKk60JOi2T/Njc988Bo9l/n/2/O1TfwXBDzNVqNkuj1614Xxrii77Nz8nlnZgH7Ov2efm/2/r31xkld9dnn0YCfdylfPvKdjSb01f4pq6IPxYGYBfKnbih3J/u2WKobQWC7b8UrHD7v10dg6cGS1NEXYghX//VblXl+NNvXcAWxpvimI2nZ1HT/6PhXJ4DB6rJ/uRv2X9kNoXrSZgs03YVvI7em7Zt+xjllFjn/dk32RuUuFmLE89gBcvXtjs17aqsaVtnfukUl0wVOTP2hhllPaWdtsXNjbrimxvCgVzWSTY7a9fYE19kC725GCzsZ3ursOF1hS8Nni22CZsG7YR20rbP3q918fGVga1Mho5LM4VCTV5ok9t8ZBYBZsjUE6R31qvrN5lrydE21h9BTa1xcXWVLx4/UqFu7itDpPKtvW4Iwcb2LOrjuD+y8dqO7BN2DZso8EANvkROSQZK+GZESiYtMU7YhFs/pB3dkN7q7ImuYUZ51pgbX3fV2DTLvu7cj9ynt1TO5RPoOP340GXl63na+l7gwnssSUbkG7wEMmnV86zStE2bKPBBDbrkXwT542KllrRp115SKyCTW0d1JKuBmRkzqylzrb1s74Em9WOaEM+e/1chbv15RNRmtfW87X0vcEC9hd318Kr7iJevjE+tZ6+fi5KFPdHJShLbWn7Z4aATZIbjhaF2KS1O4BNFx/v7pcvX2J59Sm7w+eWTrqvwf6qdBPo7pPaitvgB5mgJrN0frZ8NljAZkHLgrZqk2sPf5SP8aWbxFN4MGls9gurSA3P9cLMpAC0tbWJ6+psIZAOYEvb+vaTanxdpqy52NNBowSmr8HmcVk8Xfq1CTbfsya0PKfubgcL2IH340wGjLzu/1bsFtc9+DS2UmiHKa2jYlcgrbZIaO3OzJEOYNN3TRffiab4HoXPLQHTH2DzPM62JkN6eQg37UxqLkvn2NVngwFsrljASdbyScVrZxvIaxuMYPPcOYgcmuqOgJzLglGyau1lAvYbLqnw5g3aXzzHwqpj7wzYv5bvRFl7o9rRDNpsawwB7VDZ2bZuBzrY40o2IORhjom2Lm1vwC+a1ILBDPbwfG/8Hb8Fj58a3LlvLWdrm4AtzZDixzW6myEEp7809hd312BD/TUT91/Nixb8VrHLLrC96y4Jc+bXip0iMWxx9Qlsbrghom03HmYj6nEhkp+UIO/ZPZS014vgSM3zFtxpq0PWs0okPrkjbH/a+0fuxwgfO4Mo9OTQNnatOQsegzeRrTec/B7D8LxxpbZ+8fol1tcHg20gvzNYwZY+7VExK5BWVdipOWIC9qu3r4WKv9ycKrT1F6JSqpL4LRulJ9v+ApvnPKHMD+lPy9UOZ8efbkmCE4u2aDrd0nu6CMeVbMRvFTvh33hLuNCK22oFtE0vH5ncMBKo7m7pval70QrWP+SgL/5JMdbWB4lsPA52bXm6TCzbirSnpSbXmPq0VCgU7XUNVrDpmSOTTIw6kBMsWCWzll4q2NIMYdjSt/ay7maIgKufC79TKzIKKaFj4KKzDDcGdKg9z7QkiQQiRrzkb/tq2/b6OTKelmFvcyTmVgWKG0wLqfZ9QGOoyU3Ga51XFdjhxh28YCt2Nr0jS5L2qN4Rsmv+UsGWZkjDs1aRo2CpDLC2Ee15358am+dLzXvrYa6J/Zn85K7JsiGEmTcAE4TuPW/G41eKa6mvQLZ2HA4A6YcvbKvBzqZw/HvvgMkAmCZM/YsH6o3HEPrNhzkWA1KDHWxWjvolbh1KG6usmiMq2Gw4ekNSH9zFpIptiiliw2O6O4D3N9g8VybZawGgDcrVF74t3SKW0Mt+VmkS1LEGWn9/3vzyMaIeF2FpzUkB+MmWBJMblmbN9HuHOmhrtsFgBlu4nkvW4MtEL9wsThLMWsodEWBTkRNsmiHnm5MF2HrkhphDPxDA5jntbgpXNRsBZVKQ1tfd39B29/hNLx7h6StjhJW/39kUZhHqwQ42z59sfp21BrsyLwlmya65MSLAlmZIe3s7ttRdf+fBpsbiTJLuAjRYvn/v+X38WB7wToIt6o6UrsO3hRvglngAT548sWiOqGDTDKl50gSX6jPvNNic83eoOVrYq4MF1O6eJ59AB5ujhEfF/Kn5rmjs70r9MCN+O+7UlyveEbPCOgJsqnLmhmS0lmBm9RHFxr6rn5tPNm5/miKMNDInm/5rXm93YRls3+c18lpZDffLko0m2nsw29gKS76C0f8mb0bonRTBrrmd/QFrXLMRaF9fakrBjOrD+L6i+4EBCW9n2/4Cm5HHqw8yO9ihgw1We86XS6gEPch4JyKPki2aI2T0f5nbsC8ryGhna9x+H9AH+Or1a9C+3lEXIsCe/I6AzdkjnLVe+bz5ndfQXUFf3t6IRdUnhPtvsGtsgk1GpxTshFfiYcEuGdb6sxWwX73Ck2dPsaL67DsDNmug0JbmbOyuOv19+f8Hr54K23tq5QExSXawTDSQmlpuJdj/3t2LmdHb0PrwgbCzTcCW9nX94/uYce/QOwB2oCiNwGgdfdTvC7S2XifzSFKflGJrY4iIZEpY9NzqOefR2nlRY0+rOIhfo9ehrL6qg539gbSv81rL8W/VASyqPYm/KveJETU9CHoK84HXNQSrM7z13Lfc15aGG6gxm5Fta6e/T9+ju3NTw3Vd+1f2AWelc6Y9+5p9Lj/Xc0tGF9WcwC9xaxFXkinsbO0A8oMXr17i+fPnSGy5jaW1p7C1+RbWN1yDZ91F3YVZZqdbk3C8JV5cuJ7H8Kq7hAPNUWh8acxDfp9AtedaG148EDVX2HZ69gWhZh+zr9nneu5b7ouMktUZaTsQfDteMPz8pVKegXkjAmwOHIMb0zC3JhC+DVdFSubC6hPQW1hX+9D9GOxtjsLSmlO67n9HU9g77Zu2B1xbfsNEMOam69nX7Fv2Mfuafa7nvuW+3GvOwbfxKv7J8sehzKtiANkBbM4h21FzUxTFmVl1WDw6rNk2Pfm8t9x9q+ougemjtnSk4ztKBQJtO3C2jSjm30X6rq193xc2NgM0jLlMzFoPr4TDItOP1gfd10Jjv3z1Ck+fPoX3vfMGsI8MGrCZrbe85hSaHVD3+KZmYhhTXG3J++4K8L4CexaDiQWbsCAmQDBMlo1gv3wp4u2LK48rYN87NGjAZgmw6nc450OrVfvifXl7E/6s2GsSpewKYkv/3ydgsxxy1WF8X7QF/0RtwqNHj4Rn5PUbZR7kB4w4Pnz8CDMqDgqwZ1QODrD/V7EHrO7UFx3+Ph0j71mVSZTSErhdfdanYN/xw89hPmhsbjLxjHxAj0jDw/v4s3zPoAGbuQ8pT0rfi5yPvr6p6P6NflzYo9orfQb2vUOYXLoN34evQnldlfCMSJefAJtlo34u8x8UYHPu4amWBIemNlSS7S3w6ToloF1pZ0v/35dg/1C2HV9HrETBvTsCbDmA/ICuvjv3qzCpdOuAB5szrema0s5b7K2Ofd/3y4kX9lao7VOwy/0xNtIdmeWFJi6/D+jqK2gqF1OjWAN7INvYzP9gKub7Dl1fXX9FexM4lrGklTv7rK/AJqs/VvjDKdINySU5wuUnfdkC7LzmMjFvjl8aqGAznzrTrHxCX3Xw+3wcloHobq3DvgZ7RJQrEkqyTMF+9uwZshtLMK50g6B/IILtVLJOzFPUFi/vCWwvX71E1aNGFN6vEFLzuAkcdPRkn/3527aXz1H5uAEFrZUoflAFVhpgtVw9zonVWplT0p3yy30KdmUAhke7IKY4A2SZVczoy/6Af2Q23sGY0vUDFmxWSDJfasLeTnvQ/hh7coIwOXglhp+bj2Hn5uGn6944XhQGAmLvfvvrd3VP72N9zhlMjlyNETeWwinEBX/FbkZodTpe6XSzsjzc792omtXXYA+NckZUcaoAu80E7IaBC/bokvWIe3xbF+DY0ctiduP/nZiK/zs5zSinpuGj0zPglnBAl+P0FeS8EX+LXodPgucZZD4+CVZk2I0l2F98Q7frud6SiS/uGMukDRgbuzIAQ6OWm4DN9v+A4fTM+jv4snTjgNPY9IIwh0Gv0ggZDcUYcmaOEWjCfcooH5+ZieymEt1g6G3Ar91Ltgj1J9fmgzI21A31z/QZbD948QRzig9iVHHXc2H7WmPTxo66nSbC6jRFVLCzG+5i/AAEm4XbWXtOD0Bon/tnXsCHZppaBfv0dPzf6enYknFOl+Ppcc6d7YPa2iXtYAdNLaHm9j83FuFypX4+/9C6TDile2MU61R3kjDVp2BX+GNEpAti76QLsNueK2t8Co2d31CGb8u2DDiNzTxhRsI662Bb/+/l65fwSQ40amuNpibQUpzj96J9ENjaD54/wdykHarpIUwQg6YWcF9fgE+vL8Su28G6tB/bmTOS5mTsxtBkt07h7muwnSJdkVCc1RHs2w3lmFy2bUAFaL4t8+uwXqOtEFv6HjX23pyr+OjUdBPzQwItt2vTTorJzZb2MZA+e/7qBVZmBBrBNoP6k+sLhMY+Wx6tG9i8/sj6bIyMdBEF2K2ZJX0F9sx7h8QakuMi3JB2J6ejKVLWWIVfSgMGFNgray/oXi6huKVKeEHMzQ8JNbcp9YW6gtCbN0N0Xa4CtgWoCfaYMDdUP23S9Xpanz/B7PRd+Cx8iQK3BbOkT8FmSD1sJXJLCzuCXd1Yh7/Kdg8YsFk2IaMXgjHU2gfzr2Po+Xmq6SGh/vTsbHgmHdHNRdabQMt90/e+Kvskht5YLAaLhFmKU5gLzuisreVxb9VlCLA/i1yKoSkrOpglfQn25JJtmBTqjTsVpR3BbmpqwoyyAwMGbFZEbdPUsZYNqsf22ct2XC2Nxw/XPQXgQ87Pw1dXXXGkIAQtbYNvFg5t7WMl4ZgY6Y0RIcuF/BG3EeF1Wb3ml3/44ikmxfvis4glQoale5h4S/oMbOZjF/vh51urUVNTI8B+8VKpTCACNM3NzVhUFjggwB5dwiWSU8GEcT1A7mwf99seoepxIwh7Z98bDP9H7d3Y9gA1T5t7/anD4jQ7717HfyKW4j+RinDRI+kt6ROwOTWs6rBYZ33KrfWgcmawkbNo2F8fsFAOwV5Vfk6ATYOc0+Q7c+fY+3+2zHn8uXyHo3JTH9zUPb1Zs1vL8GWspwr2f6KWYWiaAndfgv1d3kbMC90mGCbLLK4qQur84/79+wiouK6A3c+TeTlo7Att3dOOfd9/T9ff9PQdCthRS/EfgwzL8MDou+vARZ64MjKVmb2KsLPfycm8EzLWYmXkPsFwB7BbWlpw8V5Cv5dfYG0587W/33eABvL136hOxT+JfkZJ2op/krZhTv4+7GmK7JPyC1PStmFv4kWQYS6Rx+QvJQmq/RlaW1sRXZUtCub4NYX0W8Eclt3SLrw5kDvVcW5vUP6oHs5pB7EgeTcWpOxRZUnafuwtC8Gp+4m9XjBnWtJ2XEgLFQw/bXuqBbsNDx48QHpVIVissD9LnK2rvwqukuWApvcHznq0ccvzx1icdQBjY1ZibKxRvorzxpK0ffC6cwZ/lPduibOfInwRlhMvGH7a9swINmPrDx8+RGltJWZVKEUpv++nwePZliQH1INg4ChvCsYFtty5DA4ctTIs2gWzUnZgftoefJnho3pLOrOZu/t/ZHRaxQH8cssH+SW3BcPP2pUV3oQp8vzFC1GToa6uDu7lp5XC7+XbesXg78orwsU7ZaM5toNDa4c1ZJlATcCZ+C/ATt2DMXErMSxzpa5wyzLC/xTvwfSbG3Hv3j3BcPtz5Wmv1O4z1BVpaGiAf8W1fisjzOXo9EqMd9wUfXdT3H/+CJ9HLVfh/jx6OYbHuAqwF6QpYH8esxzDdYRbgv1Xjj/cw/eA7LI2DmvksO+VEmcvX+LRk8dobGzEuYpYAfYkobE7T03s7qOD3+9MYy+rOe3Q1oPIDNEqj59SNgiwCbUKduoOqGDHOuPzOGfQFSiDOPbwY/wNl+rYhj+SN2NHzBnBLhnmOkoq2HRoyyBNXGU2ZlcfxaTyrRALRXaSc2s8iG2zKroC23ztRW3DOd73nQa2p61d8o8KoLVgz07daQq2gNsFw7M8eww32eQiu79FrUdQergIztDVJ4MzQmPzD44m6Qe8XVUK13unDauG2Q6srZBb09icrBvyMMehsQepxj5cEW4Em2ZHrCsE2Ol7MSbeE58TagPYn8e59MgsoRlCsCfe3YKptzYivShbsKsNzgiw6dBua28X7hImkmyuvCrAdirpO7AnlPk5AjODFGpq+NCGTIyMdQNtaWFPE+y0nVigBTvOBYSaMiTB1W64CTZX5v0mdx2WhvijsrJSsPusrU119QmweWKs38cFaugZOVUeJcD+QoCtr51tTWNzFau77Y4Ck/aYAQPhN2mtdzE+0dsM7F1GsLVQx7tgCIVwZ9tjlvjii9I1GJ/sDb/I44JZskuG2fE4EqwAACAASURBVBZ09algczT54NFDMbqMKsvA5PLtGFWyRnc72xrYf1buBZeNGAid5DiH7tvz5U8b8EPKegXsWGcMj3PD7LRdWJixD2MTvIyaWkJtAJtwD8vqnitQjP1K1mBshDvOJ4UIZgm21iOigs3RJI1vpv4VVdzF9NJ9GFW6VndftjWw/63cj+b2R3j6or3HwkmunLPIVFTt/vi3XsL98zh67c98P9prMP8/Pf4W+3/1Am2vdLiGV+2oa2vBH+lbVFvaEthCS0uwE1yFxibYQxK7p7kJ9ojC1fjphhfS87MEs+YeEQE2VTcHkLRR7re0oKqqCj53z/Up2N/e2SxmXC+L3Q0py2P3QJW4PViuyl4sj7Mi8fuwOfk09qRdwqrEo1gev0+Ic8I+qJK4D86q7IdzkhVJPgBnM3FJPoBVaYHYm3UVAZkX4ZJyUJHUg3CRknZQXAtnkJvKIbikGST9EFy0knEYLhrZmXcFB/KvY3X2SbhmHlYk6zBcpWQfgasFccs+Arfso0bJOQo3KbmBcDPI2vyzOFocioCiIKzIC7Qs+cewoispOIYVBcfhVhCIcYleJmDPSd+tamyrUEvAE90wPMerS2+JHDgOTffA/Ot+wr4ms2RX6xFRweYAklVX7z9oQW1tLU7fiRSmCM2RUTquqW5NY9OrMiLPGx9dmm2xmE1ncxTl1K4Pz8wA5YfLHph+dT1GX1iMD8/OwIfnZhrl/Ex8aJCPLsyCKhdn4yNLcmkOPtLIx5fnwOnqUsy4tRn/C1mDj6/MVSRoLj6WcnUePjaIsZANC9oYi9loSyTIqVxie2MBPrmxAFMiN2JO9HaMDXXFpzcX4tMQjdxahE+tyGehi6FK2GJ8JiV8iTKVi9uIJfg6yguLk/bgz/hNmnxqY+qpNjyufS/deWJrGCiKAaP0ekiXXvwKqGAneik2tcb8EJpaQi20thuGJLnZ4Ar0FQqX57Q94oRgtbn1vmBXZvURar7EWuq0K+XKBvX19UgtzcXEO1t019qdgU246eP86LKmoI2VEgkSZrmVUHP7I8EONoDdE6gJuhnUFsGWQHOrA9QE++8oDdg6Q62CnbzXCLYmn1oLsva9VagJuDWwM/dhrARbC7L2faIbhkhJ7lpzjyz2gdP15QjLjAdZ5dhQ2tdy4CjA5j8Em3b2k6dPhc1SUVGBRbcPC7D1dPt1BbaAO9tLgdsOqKmhVbAvLrFfU1uBWoAdvMygsdcatbSOUFNDG8F2M2prK1qa2lvV0tTYUktza6ap5RzFb6K9sFiC3ROotUAbtDXdeSOosTN2Y6EEWwuy9r0Emtskg1iBW7r5hmWsxJ9XfVFaWipYJbPaiKNQ19TYfCPtbNbKbm65L+zsQ0U3odg0+pkjtoAtzJJcbyPcmmI2UkPLrVZTC7NDBXsDRkuwdTA/CLSQK3PhRLBDN+PPEA3YOmlqYXZIsGP8MTbMALaOUHOOohHszerMF6121r63qqm1UGvceQLsBAn2foxN8jYOFLuCOskNQ5NXiJnviitQG0tR3HycGb8h7IhglKySWXP7WtXYBJs2ivRn085OupON725v0tUcsRVsaZZ8fGVOhzIJnUEtNPaVlZh+zQB2d6HuRFNLe7oD2DpDrWjsTZgjwdYZahOwEyTYpmmnEmyrUFswP9TgS7wLRhjAXpRlBWxLmlpCTbAl3Lksp2aEe+RtH6FYwtLjhH3d8qBVMGtuX6tg8420sx89VhKiysvLsazgiK4uv+6ALTU3gZIwy60lTS0Hij9aAFsdJHLAaGmQKD+zYFNLTW0K9hZFY/cC1Bwo/h0lwV7R44GiND/kbHIBdow3lqTsxZ8C7G5CrdXUGvNDRBQN7jwBduYeWATbRqhZr4QyPNcLI4uVMDpnwv97da0wQ5i09/CRaUYfOZYvYYrwD2mOcAo7lxZjjuupglDQWKdPWzjGe5gU1V2whebO8RK2rC1Q0wOign1pqfCA6Ak1PR/U2DNDt+DPW+vUwaK93g8OFKX5IbaGgSLBnhsbgLHhlsHurk2thZqTbr9Rwd6ipptKLc2tVU1tA9R07Y1IdMccAfYBjNOaIt2EmiBz5js9ZmSB44mdEacEmw1NjaLcgiUzhDybgC3dfq0PWoWqzy0uwO8FShSSO+6p2AO2gDvLEzRLOtPU0q1HsGdc34DRl5Ya3Xk6aGrpznMKXo6ZYUaw9YZaaOzozVbB7inURrD34a/EjmBbhboL80P1VSe4GsHO1oBtD9Sp7hiS6g4OGAn4t5ddkZ6bpZghrS0W3XwdNDY/kObI48ePUddQD5ojG3PPCa3NxJP+ApvH5V1LuATc9E9LMXPp/RjkKcAeowVbmhrmW43pQdeeOkjkYFH6qLnVuPScrhFsP6GxewNqaqW/rYCtB9QE+9vYVViS2hFsq1BrNbXZQFEFWuOnpsaem7UXiwh2srfRnUe4pffDgk0tzQ+hqamtCXaaO4ZnrBRPR+egbYJJsklGpZtPwqzdqhqbH2rNkab7zWLkGV2YivEFa3UxR+zV2PKG4kj54+B5VqFm8EUBeyPGXDZobHOYtX9rwLYFavqpJdh/hVpeSaCr4Is180MEYQwDRUtg6wU1TQ1LYNsEtRWbWsCt8XiYgr3KCHY3oaaWprYekuyGIafm4lpSuGCSpjJNZmtmCFnuALb0jjx4+BC1dXUoKSnBqpyTYgXUnyoCwAUjfyj3t0umVO7Dxobr8K0Pwi8VO+zaBxeFH3PdGU4XF5vKpcVwurQYU66txaKQ7fj+qgecLi+F0xULErQUTkHLFLm6DKOlBC/D6ODlRrnmjNFSrjtj9HVnfH/TC0sid2J2xFaMueFilJsuGHvT1Sghrhgb4qbILTeMlRLqhnGhKxQJW4FxUsJXYFy4u5D5cTvgkrAfP0b5YlyEO74U4oEvIzzwZaRGolbiSwsyPtoTqsR4YryUWC+Mj/XCHwmb4JkRiLkpu8AZ5Vr5On4VVElYha+lJK7G11KSVuObJB9Fkn3wjZQUH3yT4ovvUtfCNfcoVuadwC/pm/BNqi++SVsj5Nu0Nfg2ba0i6WvxrVYy1uFbg0zIXIcJmWvxffYG0UZzL2wQLJJJskkPniVviNTaJmDzQzVY8+QJGpsawWBNZEEKPMvOwqcxCD71V7DaTtnUcAPnWlNwqiURa+qv2refuivwrDiHOeFbhVuPrj3a1IpshEfoXqyPOIolIf6YeXOTQTZjZohGbm3GLCFbMOuWRkL9MFtKmB9mSwnfitkGWRq5C5tjT2JtzFHMidxmlKjtmKuKP+ZGGSTaH3Oj/TGPEhNglNgdmBe7A/OF7MT8OKNsSj6N7akX4JpwAAvidxklYTcWJOzGQkqiIosSd2NR0h6jJO/FIoMwCLM4Rco+LE5VxCv9GPbmBWNz1jmwBsiSdEWWph/A0gwpB7E0U5FlmQexLPOQUbIOYVnWISynZB82Ss4RLM85AtecQOy+fR37im/CM+8knPOOquKSHwhVCgLhYhDXwmNQpeg4XIuOY8XtE3ArPIapV9biUuxNwWJ9YwOePHliMSgjoe6gsfmBNEfo+G5pbUV1dTXu3LkDn7yTYg3IWVWBmFl1xC5ZUnMKe5ojEdAUhrnV9u+Hx//39m78FLoa3wd5CJkc5IHJV1di3k0/uIftxd/X12FysKci1zwx+ZonfqBc9+ogP97wwo83vBW56Y0fb64ySsgq/CTl1mr8HbYBntEH4RK1Bz+HrlYkzEcsVM/F6n8O9zVKhC9+jvDFL5TINUaJWoNfDPJr1FoYZR1+jVqHFQkH4ZN8DNNit4rFk7iA0m8x640SuwG/S4nbgN8N8kf8RphIwkb8IWQT/kiUsllo6o1ZZ7Ei/Qj+m7RZkeTN+F/yFqOkbMH/hPjhf6lStuLPNI2kb8WfQrbhzwyj/JPpj7UFZ7Gx8CJmZe/BX1nbhUzJ8ocq2f6YIiUnAFMM8nduAP7O3QFup+btwm+x6zH33Hrcvn1bsMikJ2tBmS7B1g4ia+vrUFZWhtM5ocKn2BPXX09tbGlry+3wXG9RF1rr0vvpqpfQ0mOuLOvos7bDppb5H3KgSHNkVoQf/gpb32nRddrSUiy59LQ2tXlS0z/RmzEvbocwQ4RtbUOY3NylJ2vpad148v23cauwNG0//kryU1x71hKabLSpTZKaEt0wIskDc7P3YnHuQYxLWSUGjCLoogm+WBoo0qaWonhCPPDhmZnYG3pGMFhTV2syaKQStvbqYIpotTYN9Ob7Soidd8y0dH+I6I+dHhK9wZbeEg7YBNwXZ+OnYAtga4C21fshgeZWQs3t6BsEe6sCtpWVBCTQtgwUzaHm3//EbDGCrTPUYvBIsNMNYFuD2gbvhwnQHDwaXHomYKeuUiKJ3YCanpARGZ74LGwJfjzugsLCQjFobLJh0ChBtwq2HESySlR1bY2I9pzMDMHwTA8lpdWOdNbeAJtwD8/2EpX8GVVUwN6MMVeWGzW2BmxbvR8SbC3UTD1VwQ5fr6wiQLg1Kwn0FGpqaBXsSHdjUpOVhKbuaGpCTe/Ht3GrFbCT/dTpXJbST7VhctWtp/F+mICt8VOPSPbAvJx9QmN/mbraCLYhmii0tcGdJ4MwUlMLT0g6NbcHPjo1A7tvnRLsVdVUi2pPXQ0aOwWb/ykHkVwHsqm5WUR7ioqKMCt1h5jBQL82k6SkWWDLtrfAVjX39QX4KdhbDBRVsHWEWgU7civ+kmDrDLUKdvxOjJNg6wi1EewDmCLB1vqp7TQ/pLamn1qCvST3EFSwbYSaQFNbfxqyCL+fcBfamlFwamuyaCmTT8Ks3VrU2PwC7RcZiWTRSto3dP1dzgzHqHRPAXR3w+y9CbbQ3Lne+C1irQJ20HKL+dTmuR/a4IvU0ubmh3aSwOibzpglwe4FqAn2v7F+mCfB1hlqAXb8aizLMICtM9QWwbYR6mFpHhie4YmhKe749PgMHI+6LJirrqkWM9E5GaYzF59NYPNLUmvTvUKtXVFZKUanzikHMNwQv++O1u5tsAn39Nv7MC8qAGM1YPfU/FDBvjYfEuwpERuMJkgPBoq0qcUAUc5+CdOC7WHMqTas98KkJnvMDzUAE7McE1Swt3aYJGCv+aGNKI5MUUyRJXmH8GXaapHM1KX5keYBCfYn1xZg+unVgrWKygqhrbUuvs4GjRJuqxpbam1Gd3inSK3NBO+onGR8k7xaSZDqRg5JX4A9t+oovCrPY3you2mIvJMwuS2aWkYUR990weyobVDB1hlqThSgxp6fsBPjogxg6wg1bWkF7IOYkmIAuwcDRWGCmEUUR6asFDa2Cdid2dRpHsKmprb+nElUgXNwLT5M2NZabd1ZpFECLbddgi1df7xjuFZNeWUFiouLsTH5JIZmeKA79Uf6CmwGkH4s9BOzT1RtbSX3oztQE+4xIRqwewFqAXacBmydoRZgJ6wGgy6WwFYHiZrcD5NBosb7YQlquvUE2Ln7oILdBdTU1MPSmRPijg/Pz4L7RX/BWFlFubK2zJMnal6ILdqacHcKttTa0tamh4S2NrV2bn4e/pewCcPzvTG6ZK1NA8m+BJtFeEbkeou0UGsJTd2Fmt4PFezIjXb7qS2ZH+qUrvAl+NcC2D01P4TXw5ChNyHBxwD2NrXmhzaf2jz3wwRsjfdDa35o/dQjU1difu5+Bex0H5HMZNH7YTA/OGAcmeklzK6JgUuRmZWpaOvaGuEJ6Y5tbZPGlmBLW5ujUi7EJLX2hYwwDE9YIUwSWwaSfQ228JYUrFI0tyZDTwwY7ZwkYA52d4MvXUHNeYoEe0HiLsUU0cGm1kLNibcK2Ifwd6oRbD00tZz5IsFemn8YX0qwNcEX4dLTQD0801MkOn18bDqORlwQ2pqMkTWtJ8RWbW2TxpZwa/3anB1cWl4Guv9WJhwE6zwQoq4Gkv0BtuIt8cJntxYZ00/thFpo7FuumB21XZRI6A2oCfbU+K0q2Lppak0+9YREHyzPNIKtJ9QcJAqw8/ZDBdsK1MIEyXAHwWYMYuG5jYKpkrJSMQOdFoKtfmupqeW2S1NEflFqbUYjWZn1XnUV7t69i6zcHPwas1aE27vybfcX2EJz53krcPcAagZfxhjA5kxyFWydSyRIsJm5p4Kt42zyCYm+Kth6Qy3ATvPE/LwDCtgZPmqYXKupCTUV4ohMRhgX4+uji5CWmS6Yqqy6Jxgja7b6rSWncmsz2NKvzeRuJnlzzhm1NkPtF1JvYUScmwi3EyJr0p9gC7jzV+HTW4tF0rp5RFHr0pMeEEsRRYLNYjYq2DpDTXeeADtpN76MNoCtF9QG74cKdto224rZSLvazPuh2tVmfuqREuyCI2INGhlVFBpamiDpHkJT007/5Oh0BIZfFCxRW5MtOZHAVr+1BFpubQabPyDcdLkwu4ruP1ZnvVtaIqJD6xKOiWSXLwTYliOS/Q22gDvXS/iNjWDbXqFJamwV7F6AWoCdsA0LJNg9gVpjfmjrU09I8hUpp39LsG0Ik1sbKAr/tATb4P0QYOcfwFIN2Fqoufb6MIMJ8uHZWXC7uF0wdLfkrmCKbNmSwSchtrTtNtjSJJEDST42mNaam5uLqdFbxOOFRXYs2dsDAWypuRkUUbU0y4/ZmNDEsmMK2Jt6pZgNTY+pFsHWbzb5RBXs7ZZrftjg0pMDRRVsjUtvZLon5mvANodamiAMxPwc6IKcnBzBUMW9yh4NGLWAdwtsqbXlQPLRo0eijKs0SWIykvBthJcoMGipgtRAAVvATZs7bEm3U08F2DH+okRCZ6mntng/RKUmC35qgr0weTe+jFlpKGijH9S0qVWw062ALU0Pbm00P9R5imnuUMEuPILxGb4ioijgTtfY1ZHL4HR4HsISo4QJUlpWKlgiU/YOGHsENn9Mra01SVhg507JXfE4OZVyAyOiXDCiYFUHW3sgga2YJYR7sVFb25D7MTbUTRSzYYkEwmtNzMPkWj+1WnrMAtTU2NMStWB3E2or5ofWTz0x2RfO2YfxtyWwewg17WkJ9rLCo0awDVAL116iYlfvCzkjmCE7ZEhrgpCxnry6rbF5MNra5iYJZ9oU372D/Px8+MWdxH9ilovBpNa/PdDAFnAXrFLgtgFqamiWHWOVJk647Q2oOUHACLan/XU/OgmTT0xeYxlsHaAm2EySW1BwEALsTF/Qpqb5QagZjPm/E9Ox+vJuwUrxnWJlZkwPfNaWbgC7wJZwS5NEeklEklRxMfLy8uASuVssgTbqjo9aingggq2aJRFLlaSmLsLkBJvFbKyB3RNNLWe9CLBT9uDL2I5gq8lMXHqO2llKN7L0JNj/ZPgbbWydoFbA9lLALjqK8QawGS4flumBD8/NwtzTawUjt4tvo7yiXPWC6GGCSMjtBlvCLZOk6Exn4IbuGgZuOCCYEbYJnye4Ggp6+3a6ziMB00OYBMVcEYbUu7M/1i2hR0JOFFB91Gb1qceGrbAKth5QC42dtB0LLYCtB9QMj09MWQPnnCNQwdYRatrSo9LNwKYHJItVdOfij2PuyM7O7hCIYdi8O0lOEmBr2x6DLU0SOtNbW5UKUtLeTsvKwO+3fDEkeQU4mByoGlveAFwCgnBbg5qmB8uOUWNzXqLWFNELas5ymWYBbJug7sT80OZ7mICtM9QdwM7yxYgsL3x8bT6+O7IUSWnJil19946wq8mMNhDTnbC5Naj5eY/A5g6kvc3ADTMAGd+X9nZBQQFiM5Lww01vjEhbiR/Kt8Or7hLcas9ifOlGjC5Zr7ssqD4mSjv8XrHLrn075ftgaJQzPg9ZrMitxfhcyBJ8HroE48M9RKmEqTF+4u8hoUswJGypUcKXYoiUiGUYopXIZRgqZDmGRlkSZwyNdsbM5ABRqembOG8Mi3bGsGgXDItRZHiMC4bHSnHF8Dgpbhgeb5QRCW5QZAVGJJrK96nr4JobiGmZOzAiyV2RZHeMEOIB5lOrkuqBkVLSVmKklPSVGKmKpzL5hBNQ0j0xOmMVFhcehkvRMXyXuwGfhyzBV4cWIjwxGmTitsauJjOyopNeUOsCtoRba29zkSZO5+EFcDAZmRqH+RHbxWDiyP1YHLgfBefaM1hac0p32dEUhhOtCaIoj737X1QWiGmJ24UdTVua2pnzEOVcxA0pp7AqKVD8/W+Mn8ifZg61kLit+DduK6ZS4qVsE75puvEo3LcqSduFhqaWnpbsL2Rt5mlszb4g6oBMTwmAlBmpAZiRukORtB2YoZGZ6TuhSsYuzDTIrMxdUCVrN2Zl7YZLzlHsvH1NlEiYnb0bs7P3YHaOlL2Yk2OQ3L2YIyVvH+ZIyd+PuVopOIC5GllYeAjbS4KxpyIEc+MCMOWYJ0LiIgQLtKvFVK+mJhFd1NOuJovy1WONLXfEu03a2/RFMizKxSULi4vEQCE8NVYMKPeWhiCwOQ6edRfhXnted9nXHIWzD5KxqeG63fteUXseLhWnMCdpJ2bGbMfMWKMsid+DLSlnsTb5BGbF+RslPgCzDDI7PgCzE6TswJxEjSTtFPvlvucmayRll6j3wepMm7LOISDnsliAaV7qbghJ2435aXsUSd+D+VIy9mK+QRZk7MOCTI1k7cMCIfuxIFuRhdn74Zl3QhSz2VR4EQtzDwhZlHsQquQdxCJVDmFxvkYKDmOxQZYUHoEqRUewxCDLiwKxtzwEm9POYPYJH1yPDRUMFBQVCibIBhmRdnVPXXuSQe1WV7B5gtK/zcFkQ0ODqN5TcFuBOzgpHM7hu7A8/zC+L9+Gb0q36C7Lak6LMmp/V+7r8b7HF66DU/QKjApzNogLJkZ6g3DPjvXHF+EuikS44gspkW74QkqUG74wiFOUG5yiVigSvULsl/t2iqG4mwhB5qpi3yesgVOsB5ziPDBaK/ErMVpKgidGG2RMoidUSfLCGHNJ9sKYZG/8mr4ZnvknMCd7L8akeGNMqjfGpq4yStoqjJWSvhpjpWSsxliDjMtYjXEZPopk+mCclCxfTMjdgHlxAZh5fDUuR98QUOcXFSqVnOrrRY61DJmTGT1NEAm3bmBzh9LeZkaWzCehp4RVW3m30g0YmhyDBbe2C7vOqZO8Ejmg6+7WXq+IteMw0MQBnRwocvDIYjY0S8SAsRfqfkxP9seitL0YH+dldOeZB156MJt8YupauOQdxb9ZAXYVs6FLzzxMLvM/OFCkTf33MU8TTU0GxGJIhjwQmbXXG1CTRV3BNodbekqYLMUL413LnJKI5Fj8EOyp+LmLmTBlOWnKGmydfa432DyWFm6uCKuC3QtQ0/thEexu+Km1HhD1vcb78V2aEWw1Q8+wPIal3A+CrBVzqEXwhX5qej+C54uBYkhshOjrvMICpfRvXZ3wmvWGB0Rqae1Wd7Ctwc2QKUul5RcViAuOSUvAb1dX4T/RyzDy9mpdVkwghL0BtoA731toblY/Jdj/xm7plWI2Ktjp+zA+XqOxtWBr3Hr25FNbBFtm6HGrSWjSAm1JU8uIIoMvrLL1/eGliEiIUaAuyBd9zr6Xbr3e8IBogZbvewVsLdy8EGYCcnKChJtmCTV3Snoapl5bh09DFwutqEdx+d4Cm3CPLFwtooGs+UEPiMj/6IW6H/SCLJZgWwFam/sh4O5G6inBds0PFKZIZ1l6tkDNiQK8EVhj74+jK5CUmiz6Nl8DNfueDPQV1OSv18CWcNMNaA631ubOysrC8hv++OTGQiUr0M66gASvNzW23P93RZuxKG2fAnYvQM0Q+QwVbO9eqfvxXdo6A9g7jDU/uqmpaVMTakaW/9+xqZh3eh3YlxxH5RvMDyoyLdRkobdsaqmp5bZXwbYGt7S55YCS4fdN4Ucx7OpicfcrKa/22d29qbEJ9+Sy7fCoOCvg6ypLT+Z+KFvbs/QE2Bn7MT5BA3YPzQ+ZfkoNLcGemq0B20bzg6YHJwmIKV3hS/HJ4WnwvbxHpFAQ6gKNTd1fUJO7XgfbEty0twg3i8oX3i5CXn6+aJhjMVfw9RUXYXeP4mplduSP9AXYjJ4urjgmPBYMwUtR5ydGatcl53vboRYaOzUAiyXYGqB7Yn4QbDlQ/C59HVwLAqGC3Q2omaFHsFm6YvShuTgQclaBOj9P9CX7lH3LPpbmR19q6j7T2PJAWlcgR8bMvaX7h0GcYs7Ayc8TtllkchymXPExM01s1959BfbS6pMYkb9KmAoEWy+oFbB3GMBe1St1PyZpwbYBaqaaSi1NL8v/nZqB3466ISwhSvRZTl4uGFFkX0qXnvR+9AfUfaaxrcEtgzgMsXLGe15BvmgoZn9539iLoZcXChvuC83qrF1p8b4Em+cysmC1cFuqYPdkjqJhoMiw+eKMA/gq0Qi2Pd4PrfkhtTXdeSrYOTuNHhArLj1CTS1N04MVUD89PB3u57cLe5oOAPYZ+459yIAc+1RC3VvBF8lTZ9s+MUW0J6DV3AzisCGYW1JVVSUqa3LgwQYj3GdigvHDRXfRoFyhdbQYWHauvfsabAF3oQFuHaDmpFvmgCzRgK0n1CrYXNtFgm0BaqGl091FhaYhia748OxMfHtoEU5GXBZ9wz6i54MVeNl37EP2Jfu0t4MvWp6sve9zsHkiEm6ZW8KJCqwLWFNTI/yewh2Ynydst7T0dLheC8DQSwtFwUKuFKydlWOuwfsDbJ4DgzifxznbN0fRLKo4M22nCrbeUAuwM9YrixYRbDOoBdCGcr5cLoMpvJ8cmoqlZzchJTVF9EluXq6IJDMuwT5j37EPtbkffeX9GFBgm8PNDC+mL3IULQeVYua7we6m9j4dcxW/XPIUs1zY4OZAy7/7C2wen35ugmhpsGhTPjVNkTgXCLAzD+CrpFW9UvdjkgQ71xxspei6qHoa6ywWi518ZBmO3bqgamna0+wbOUhkn7Hv2IdUVP1pfmgh7xeNLU9Aam6tr5uDStpqJqaJQXtnZGTA98Z+jDm/RMwwZ0FMBnW090WRBQAACbVJREFUGrw/wbYGd3egtgh2N4IvWu+HteCLALvoOKYawFZWv/UUKwnw9x9dnoNRB2fD83wA0tLSVC1NM1GaHuwj9pXW8zFQoCZf/Qq2FnDCLZOnmNIoTRMGc1i2WHpNqL1DEiIwP2gzhl5aICYNc+YL4ab0N9iEm2aJ1NxWoTYzPwi0FOZVLxEae7VxTqI53JrcDzlItAVqRgknZRpMkdwdYuVbamh+zjof/zk6E7NP+uJGbJiqpdn27AP2hTQ92EfSnu4vz4fkx9J2QIDNE5PaW9rdfLzRF0r3EUfc1BQFhYXIzs0RGoRRrtPRV/HPJV98dnm+sG8J+PzqQPg0BHV7zqM0ZbraMkBDPzbdfZ19d2SRD4bEuyrLzXU28VYDNMHmDSHAzjqIr5KtgN0DqKmdJ2Wug/vtE5iet0cATTv6o8Dp+F+gB06EXRIeDwbN2NYMuLDt2QfsC/YJ+2Yg2dMDGmwt3NI0oduII22t9qZ9RxeTFvCD4efxx3kvAfiUZD943juP3yp2qiaKpapUnUHZ2f/ZCjb3IWzuBNdup54S7KXWwLYT6iGp7iDUHJ/8kL1RBGj+iFiLjwOn4Zejrth/87QJ0Hn5ecKW1mpp9gX7hCkS7KOBZHqYwz1gNLb2xKT2pmlCzSC1t7S9WXi+6PZtYZ7kGFyDmZmZIODLL2/FnBtb8HW0p6gAyxUXpJkiYOvmSmfmkHcHbBXuRAPc2oQmw0BRmh9a7wendVkEu5tQC5hT3TEsfaUAmkGWzxNcMO6aC6ad9cGik+sE0Gw7mnh04dHjUXS7SFmCrqpKjHe0WnoguPK0rFh7PyDB5slKuLXam3YdJwvTc8IoFx+RhSz1kJer+r5pogTFhGDZ5a344txCfHJzoXBpSTehMtD0tVhb0BxiS393F2wBN80Swi3BtmB+qGAnuIr5ikuzD+HrZB+jjW0j1ENSVoAyNG2FAnT6SnH9n0UtFctgDDsyC4tObcCliOtCQ0ug+QQsLCoUbcq2ZRuzrdnmg0VLayEfsGBLuCXgtL3pUuIonKNxBgQ4kKHbiZEv2t/mgF+PD4Nn8C58d9YFnwbNFwNNBnpGlazReFMUyG01V+wBm3DT/ufgjr5uqaWlTa2FmiFrobG1YHcBNctbCJhT3ZSVtwhzuofw+398fQE+OjkDXx9ehBXnt+F6TKgJ0Gwz2tFsQ7Yl25RtKz0e5m489sdgeA1osGUDSripvc3NE04MZWfQFpSA0z7Myc0Rj1dq8KSUZOwNPY2ZF9cKV+Gn1xeITqe7UAu5VptbA91esIXmLuQqtYRb8YCoQJstZDQrczdUjW0B6s9ZKFLMeHHDsFTDMnJi5S2aGq745OYi/N/pGXAKnIdpJ1Zh1/XjSEpOUoFm29DTQWXANpN2NNvS3OwY6La0ZMR8OyjAlictAaf25gCG7iZGvNgZtL9Zz0RqcFajYudl5WQLLwofuYQ8ND4SfjeO4J8LPirkrDM4LMtTWd6vVHEbGv3jRo1O2HsCtjRLCLc1qKmxVbBTfPB5opsiAmZXsbjncMKc6iE8GtTUPH8WqVdgno8pxz2x6coB3IwJM8KckyPaQtjQRUWqhmabSaDZlmxTtu1ACrbI/u/OdlCBzQsj3J0BLjW4tMHpf6UGF14Uw0CTgFNuxUVgR8hxLLi4ET+dd8e4YGc4hbtiXLI3vs5fhwmlWzCxYiu+K9+KSRXbxHZK5V5saLgGj9oL4v/5HYtS5ocJVuSb4k1iYc+xSV4wijfGJiuyOPsgVuYfxy8ZG8X3vkpfjS8NMi5tFcbEr8QXoS4YfnkRvji1AJMDl2PuyTXYfvWIgJmDQV4fb2YxuM7NEW3AtuC4hG3Dp1xXQLOdB+tr0IEtG7orwGkncgBE/ytzGugm5ECTGssS5PFJCTgbcRV+1w4Lz8rUy2vxW/Bq/BTug98SNuDP7O345/ZuLKwMxNamEKxrDMbM6sOYWX1EkarDmKmVe4cwsxOZXn4QU3L88WfGVkUyt+NPIdvgnn8MqwtPY3rmTvyetAm/RK3BDze88N1FN/x42g1/HV+Jxac2YuPFfTh16xLiEuMFyCYw5+SIa6W5wWtnG7At2CZsGz7lrGnowQy05GPQgi0vwBrgdBHS78qRPQML0kyhxqLmYocT8qzcbDHoFAEJg7lCjUdYzkddw44bx7DiSgBmXVqPXy944serK/FPyAb8HrUOX8Z4inyObzLXYkLuekws3ITvbm/GpLt+mFS6Fd+XbVOkfDu+l8LPSrdhUokfJuRvxPh4b4yL9MCYsBVwuuGMUVeW4IfLHvj9vCe+O7kcPx1zxbSTq+Fyxg/+QUdxNixInBvTC1SQc3KEZqbZxWviDSy1M00zXjvbgG3BNmHbWDI53gWgJReDHmx5IeaAy0EmXVV0WVFDSS3OPBR2uIRc2uPU5EKbM+qWna0OPgkQQUpIThLmy6mwK9h58wS8ru7GwoubMfWCL/646IXJ51dgwnkXfH3JGeODXDAuaDlGX10Gp+DlGH3NWbwfd9UZ46+64OvLLphw0RU/nHPDLyfc8M9xLyw4tR4rz/sjIOgIToRcFGYFnyQSYgmyMDF4jjnZ4nw5luA1aGHmNWq1s3TbMS7AttHa0O8S0JKHdwZseUFawDmi1w40pRZnRhrtS3a81OQM+tBDwFXQ8gsKlOCPNFu4tQA7QaNQwxM+JgwlJCUiIi4aIbHhCI4OQVDUTVw2CN/zM/4fv8Pv8jf8rbSL5T61EBNg4eUxbAkyc6F5rjxnnrvUzLwmXhuv0ZJ21no53kWgJQfvHNjywrhlxzHsSyHg1FT0y/IxrIWcmpyPag6oaIcSEgk6tSC1IU0XMTeTuSp5ucjMzkImQaM5Q82pAV9qe5u3Bo8F4c3MyRL75qCPf3PgSz+z1MhakHmuPGeeO6/BHGZeq1Y7D+QQuLbf9Hj/ToMtG8iSFtdCzqAPH9UMStAOlaCzfAAf6fQi0NdL2Gm+cDBG4KkxCVxhYaHQ8gL8vFwlUMRccoM3Rpo43PIzCm8ICn/DJwT3wX1xn9w3j8Fj8Zg8Ns+B58JzkiDzXHnOPHdeA29YLczvi3aW/azdvhdgay/YGuT03dL+pE0uQeejnFqQSVh8vBMoPuqpJQkZNSaBo4YnfPQ8SPgJJYUaVivycwktf8Pfch/cF/fJffMYPBaPyWPzHKRGliDzXHnOPHepmd9nmLX9/N6Brb14LeR8TEubnJAQFmm2ECCaLnSPEXZqSQ5GqTEJHDU84WOQiCDKG4BgUqhlKfJvCSy/x9/wt9wH98V9ct88Bo/FY/LYPAepkS2BLM0MXpPjBfx/pvjmcYBQos8AAAAASUVORK5CYII=;" vertex="1" parent="1">
          <mxGeometry x="122" y="335.92999999999995" width="52.75" height="55.07" as="geometry" />
        </mxCell>
        <mxCell id="74vnh9bXnx0oglWYi-Rk-4" value="Advertisement" style="text;html=1;strokeColor=none;fillColor=none;align=center;verticalAlign=middle;whiteSpace=wrap;rounded=0;" vertex="1" parent="1">
          <mxGeometry x="386" y="190.07" width="40" height="20" as="geometry" />
        </mxCell>
        <mxCell id="74vnh9bXnx0oglWYi-Rk-5" value="Skip" style="rounded=1;whiteSpace=wrap;html=1;strokeColor=#6c8ebf;fillColor=#dae8fc;" vertex="1" parent="1">
          <mxGeometry x="426" y="75" width="45" height="22" as="geometry" />
        </mxCell>
        <mxCell id="74vnh9bXnx0oglWYi-Rk-6" value="" style="rounded=1;whiteSpace=wrap;html=1;strokeColor=#B3B3B3;" vertex="1" parent="1">
          <mxGeometry x="320" y="405.07" width="160" height="290" as="geometry" />
        </mxCell>
        <mxCell id="74vnh9bXnx0oglWYi-Rk-7" value="Skip" style="rounded=1;whiteSpace=wrap;html=1;strokeColor=#6c8ebf;fillColor=#dae8fc;" vertex="1" parent="1">
          <mxGeometry x="426" y="422" width="45" height="22" as="geometry" />
        </mxCell>
        <mxCell id="74vnh9bXnx0oglWYi-Rk-8" value="Guide" style="text;html=1;strokeColor=none;fillColor=none;align=center;verticalAlign=middle;whiteSpace=wrap;rounded=0;" vertex="1" parent="1">
          <mxGeometry x="384" y="535" width="40" height="20" as="geometry" />
        </mxCell>
        <mxCell id="74vnh9bXnx0oglWYi-Rk-9" value="" style="ellipse;html=1;shape=endState;fillColor=#000000;strokeColor=#0066CC;" vertex="1" parent="1">
          <mxGeometry x="374" y="643" width="12" height="12" as="geometry" />
        </mxCell>
        <mxCell id="74vnh9bXnx0oglWYi-Rk-10" value="" style="ellipse;html=1;shape=endState;strokeColor=#0066CC;fillColor=#FFFFFF;" vertex="1" parent="1">
          <mxGeometry x="398" y="643" width="12" height="12" as="geometry" />
        </mxCell>
        <mxCell id="74vnh9bXnx0oglWYi-Rk-11" value="" style="ellipse;html=1;shape=endState;strokeColor=#0066CC;fillColor=#FFFFFF;" vertex="1" parent="1">
          <mxGeometry x="420" y="643" width="12" height="12" as="geometry" />
        </mxCell>
        <mxCell id="74vnh9bXnx0oglWYi-Rk-12" value="" style="rounded=1;whiteSpace=wrap;html=1;strokeColor=#B3B3B3;" vertex="1" parent="1">
          <mxGeometry x="577" y="256" width="160" height="290" as="geometry" />
        </mxCell>
        <mxCell id="74vnh9bXnx0oglWYi-Rk-13" value="Main" style="text;html=1;strokeColor=none;fillColor=none;align=center;verticalAlign=middle;whiteSpace=wrap;rounded=0;" vertex="1" parent="1">
          <mxGeometry x="637" y="391" width="40" height="20" as="geometry" />
        </mxCell>
        <mxCell id="74vnh9bXnx0oglWYi-Rk-14" value="" style="html=1;shadow=0;dashed=0;align=center;verticalAlign=middle;shape=mxgraph.arrows2.arrow;dy=0.67;dx=20;notch=0;strokeColor=#0066CC;fillColor=#FFFFFF;" vertex="1" parent="1">
          <mxGeometry x="250" y="369" width="50" height="30.07" as="geometry" />
        </mxCell>
        <mxCell id="74vnh9bXnx0oglWYi-Rk-15" value="" style="html=1;shadow=0;dashed=0;align=center;verticalAlign=middle;shape=mxgraph.arrows2.arrow;dy=0.67;dx=20;notch=0;strokeColor=#0066CC;fillColor=#FFFFFF;" vertex="1" parent="1">
          <mxGeometry x="500" y="369" width="50" height="30.07" as="geometry" />
        </mxCell>
        <mxCell id="74vnh9bXnx0oglWYi-Rk-16" value="Splash" style="text;html=1;strokeColor=none;fillColor=none;align=center;verticalAlign=middle;whiteSpace=wrap;rounded=0;" vertex="1" parent="1">
          <mxGeometry x="128.37" y="505" width="40" height="20" as="geometry" />
        </mxCell>
      </root>
    </mxGraphModel>
  </diagram>
</mxfile>
